<svg width="219" height="38" viewBox="0 0 219 38" fill="none" xmlns="http://www.w3.org/2000/svg">
<path d="M57.3085 24.5239L55.4019 30.582H48.0215L58.5693 0.383789H67.0261L76.6206 30.582H68.9327L67.3029 24.5239H57.3085ZM62.6593 7.14918L58.9999 18.9579H65.8268L62.6593 7.14918Z" fill="#1E2C40"/>
<path d="M86.5483 8.71734L86.3638 11.3005C88.2089 8.99411 89.808 8.13306 92.5141 8.13306C98.2647 8.13306 102.17 12.7458 102.17 19.5727C102.17 26.5534 98.3262 31.1661 92.5756 31.1661C90.177 31.1661 88.5164 30.4896 86.702 28.7983V37.501H80.2749V8.71734H86.5483ZM86.456 19.6342C86.456 23.5397 88.2704 25.9691 91.161 25.9691C93.9594 25.9691 95.8353 23.5089 95.8353 19.7265C95.8353 15.7903 94.0825 13.3301 91.1303 13.3301C88.2704 13.3301 86.456 15.7903 86.456 19.6342Z" fill="#1E2C40"/>
<path d="M112.098 8.71734L111.914 11.3005C113.759 8.99411 115.358 8.13306 118.064 8.13306C123.815 8.13306 127.72 12.7458 127.72 19.5727C127.72 26.5534 123.876 31.1661 118.125 31.1661C115.727 31.1661 114.066 30.4896 112.252 28.7983V37.501H105.825V8.71734H112.098ZM112.006 19.6342C112.006 23.5397 113.82 25.9691 116.711 25.9691C119.509 25.9691 121.385 23.5089 121.385 19.7265C121.385 15.7903 119.632 13.3301 116.68 13.3301C113.82 13.3301 112.006 15.7903 112.006 19.6342Z" fill="#1E2C40"/>
<path d="M146.35 16.5898C145.981 14.4987 144.536 13.3301 142.352 13.3301C139.4 13.3301 137.832 15.5442 137.832 19.542C137.832 23.755 139.431 25.9691 142.414 25.9691C144.72 25.9691 145.981 24.8005 146.473 22.2174L152.716 22.5249C151.824 28.0602 148.011 31.1661 142.229 31.1661C135.587 31.1661 131.374 26.7379 131.374 19.7265C131.374 12.4691 135.526 8.13306 142.475 8.13306C148.164 8.13306 152.07 11.3927 152.47 16.5898H146.35Z" fill="#1E2C40"/>
<path d="M162.828 21.5408C163.228 24.5238 165.011 26.1536 167.779 26.1536C169.501 26.1536 170.731 25.5693 171.592 24.2163H178.112C176.882 28.46 172.822 31.1969 167.595 31.1969C160.86 31.1969 156.37 26.5841 156.37 19.6957C156.37 12.8688 160.952 8.16382 167.533 8.16382C172.146 8.16382 175.651 10.4702 177.281 14.5909C178.05 16.4976 178.358 18.5272 178.358 21.5716H162.828V21.5408ZM171.746 17.0203C171.469 14.4372 169.993 13.0226 167.502 13.0226C165.011 13.0226 163.382 14.4372 162.889 17.0203H171.746Z" fill="#1E2C40"/>
<path d="M188.255 8.71756V10.8394C190.592 8.65606 191.976 8.07178 194.221 8.07178C198.956 8.07178 201.878 11.2392 201.878 16.4055V30.5821H195.451V18.6811C195.451 16.467 195.328 15.606 194.774 14.7757C194.221 13.9761 193.267 13.5148 192.16 13.5148C191.084 13.5148 190.069 13.9146 189.393 14.6834C188.655 15.483 188.439 16.4055 188.439 18.3121V30.5821H182.012V8.71756H188.255Z" fill="#1E2C40"/>
<path d="M218.971 13.5146H215.035V22.0329C215.035 25.4771 215.158 25.7538 216.664 25.7538H218.971V30.5819H215.035C212.236 30.5819 210.822 30.1821 209.868 29.1365C208.884 28.0602 208.607 26.8609 208.607 23.4782V13.5146H205.532V8.9941H208.607V2.07495H215.035V8.9941H218.971V13.5146Z" fill="#1E2C40"/>
<path d="M22.4214 30.7663H3.16233C1.9434 30.7663 0.968262 29.7738 0.968262 28.5722C0.968262 27.3533 1.96082 26.3782 3.16233 26.3782H22.4214C23.6403 26.3782 24.6154 27.3707 24.6154 28.5722C24.6154 29.7912 23.6403 30.7663 22.4214 30.7663Z" fill="#FF7A00"/>
<path d="M36.1257 21.9902H21.2722C20.0533 21.9902 19.0781 20.9976 19.0781 19.7961C19.0781 18.5772 20.0707 17.6021 21.2722 17.6021H36.1257C37.3446 17.6021 38.3198 18.5946 38.3198 19.7961C38.3198 20.9976 37.3272 21.9902 36.1257 21.9902Z" fill="#FF7A00"/>
<path d="M21.481 13.1965H13.3142C12.0953 13.1965 11.1201 12.2213 11.1201 11.0024C11.1201 9.78349 12.1127 8.80835 13.3142 8.80835H21.481C22.6999 8.80835 23.6751 9.8009 23.6751 11.0024C23.6751 12.2039 22.6999 13.1965 21.481 13.1965Z" fill="#FF7A00"/>
<path d="M26.0261 4.40279H18.3991C17.1802 4.40279 16.2051 3.42764 16.2051 2.20872C16.2051 0.98979 17.1976 0.0146484 18.3991 0.0146484H26.0261C27.2451 0.0146484 28.2202 0.98979 28.2202 2.20872C28.2202 3.41023 27.2277 4.40279 26.0261 4.40279Z" fill="#FF7A00"/>
<path d="M31.0931 13.1965H30.2746C29.0557 13.1965 28.0806 12.2213 28.0806 11.0024C28.0806 9.78349 29.0557 8.80835 30.2746 8.80835H31.0931C32.312 8.80835 33.2871 9.8009 33.2871 11.0024C33.2871 12.2039 32.312 13.1965 31.0931 13.1965Z" fill="#FF7A00"/>
<path d="M12.4608 21.9902H8.2468C7.02788 21.9902 6.05273 20.9976 6.05273 19.7961C6.05273 18.5772 7.04529 17.6021 8.2468 17.6021H12.4608C13.6797 17.6021 14.6549 18.5946 14.6549 19.7961C14.6723 20.9976 13.6797 21.9902 12.4608 21.9902Z" fill="#FF7A00"/>
<path d="M41.2451 30.7663H31.2151C29.9961 30.7663 29.021 29.7738 29.021 28.5722C29.021 27.3533 30.0136 26.3782 31.2151 26.3782H41.2451C42.464 26.3782 43.4392 27.3707 43.4392 28.5722C43.4566 29.7912 42.464 30.7663 41.2451 30.7663Z" fill="#FF7A00"/>
<path d="M214.171 35.5022H212.267V37.407H214.171V35.5022Z" fill="white"/>
</svg>
